# xmcd
#
# Track frame offsets:
#	150
#	15562
#	39860
#	56405
#	70035
#	85587
#	107635
#
# Disc length: 2067 seconds
#
# Revision: 0
# Processed by: cddbd v1.5PL3 Copyright (c) Steve Scherf et al.
# Submitted via: dBpowerAMP V4.0
#
DISCID=45081107
DTITLE=Short Stuff - What Time Is It?
DYEAR=2001
DGENRE=Blues
TTITLE0=Funky Woman
TTITLE1=Let's Straighten It Out
TTITLE2=Freedom Blues
TTITLE3=I Made A Mistake
TTITLE4=Main Lady
TTITLE5=It's Cheaper To Keep Her
TTITLE6=What Time Is It?
EXTD=
EXTT0=
EXTT1=
EXTT2=
EXTT3=
EXTT4=
EXTT5=
EXTT6=
PLAYORDER=
